<mxfile host="app.diagrams.net" agent="Mozilla/5.0 (Windows NT 10.0; Win64; x64; rv:135.0) Gecko/20100101 Firefox/135.0" version="26.0.6">
  <diagram name="Page-1" id="qp403RvyYU6tc1Qedp8Q">
    <mxGraphModel dx="2474" dy="1141" grid="0" gridSize="10" guides="1" tooltips="1" connect="1" arrows="1" fold="1" page="0" pageScale="1" pageWidth="827" pageHeight="1169" math="0" shadow="0">
      <root>
        <mxCell id="0" />
        <mxCell id="1" parent="0" />
        <mxCell id="cUVrmH6uyblH1vRHMtkd-8" value="" style="group" vertex="1" connectable="0" parent="1">
          <mxGeometry x="668" y="265" width="424" height="296" as="geometry" />
        </mxCell>
        <mxCell id="cUVrmH6uyblH1vRHMtkd-5" value="" style="rounded=0;whiteSpace=wrap;html=1;movable=1;resizable=1;rotatable=1;deletable=1;editable=1;locked=0;connectable=1;" vertex="1" parent="cUVrmH6uyblH1vRHMtkd-8">
          <mxGeometry width="422" height="296" as="geometry" />
        </mxCell>
        <mxCell id="cUVrmH6uyblH1vRHMtkd-4" value="" style="image;sketch=0;aspect=fixed;html=1;points=[];align=center;fontSize=12;image=img/lib/mscae/Docker.svg;movable=1;resizable=1;rotatable=1;deletable=1;editable=1;locked=0;connectable=1;" vertex="1" parent="cUVrmH6uyblH1vRHMtkd-8">
          <mxGeometry x="125.63999999999999" y="78" width="170.73" height="140" as="geometry" />
        </mxCell>
        <mxCell id="cUVrmH6uyblH1vRHMtkd-9" value="&lt;b&gt;API Server&lt;/b&gt;" style="text;html=1;align=center;verticalAlign=middle;whiteSpace=wrap;rounded=0;" vertex="1" parent="cUVrmH6uyblH1vRHMtkd-8">
          <mxGeometry x="107.5" y="-34" width="207" height="55" as="geometry" />
        </mxCell>
        <mxCell id="cUVrmH6uyblH1vRHMtkd-29" style="edgeStyle=orthogonalEdgeStyle;rounded=0;orthogonalLoop=1;jettySize=auto;html=1;exitX=1;exitY=0.5;exitDx=0;exitDy=0;entryX=0;entryY=0.5;entryDx=0;entryDy=0;" edge="1" parent="1" source="cUVrmH6uyblH1vRHMtkd-11" target="cUVrmH6uyblH1vRHMtkd-5">
          <mxGeometry relative="1" as="geometry" />
        </mxCell>
        <mxCell id="cUVrmH6uyblH1vRHMtkd-11" value="" style="rounded=0;whiteSpace=wrap;html=1;" vertex="1" parent="1">
          <mxGeometry x="99" y="265" width="424" height="296" as="geometry" />
        </mxCell>
        <mxCell id="cUVrmH6uyblH1vRHMtkd-12" value="" style="group" vertex="1" connectable="0" parent="1">
          <mxGeometry x="-70" y="184" width="85" height="372.5" as="geometry" />
        </mxCell>
        <mxCell id="cUVrmH6uyblH1vRHMtkd-1" value="User" style="shape=umlActor;verticalLabelPosition=bottom;verticalAlign=top;html=1;outlineConnect=0;" vertex="1" parent="cUVrmH6uyblH1vRHMtkd-12">
          <mxGeometry width="85" height="115" as="geometry" />
        </mxCell>
        <mxCell id="cUVrmH6uyblH1vRHMtkd-2" value="" style="endArrow=classic;html=1;rounded=0;" edge="1" parent="cUVrmH6uyblH1vRHMtkd-12">
          <mxGeometry width="50" height="50" relative="1" as="geometry">
            <mxPoint x="42.209999999999994" y="148" as="sourcePoint" />
            <mxPoint x="42.210000000000036" y="372.5" as="targetPoint" />
          </mxGeometry>
        </mxCell>
        <mxCell id="cUVrmH6uyblH1vRHMtkd-13" value="&lt;b&gt;API Routes&lt;/b&gt;" style="text;html=1;align=center;verticalAlign=middle;resizable=0;points=[];autosize=1;strokeColor=none;fillColor=none;" vertex="1" parent="1">
          <mxGeometry x="237" y="239" width="82" height="26" as="geometry" />
        </mxCell>
        <mxCell id="cUVrmH6uyblH1vRHMtkd-17" value="" style="endArrow=classic;html=1;rounded=0;" edge="1" parent="1">
          <mxGeometry width="50" height="50" relative="1" as="geometry">
            <mxPoint x="159" y="346" as="sourcePoint" />
            <mxPoint x="491" y="346" as="targetPoint" />
          </mxGeometry>
        </mxCell>
        <mxCell id="cUVrmH6uyblH1vRHMtkd-19" value="GET /users/{user_id}" style="text;html=1;align=center;verticalAlign=middle;whiteSpace=wrap;rounded=0;" vertex="1" parent="1">
          <mxGeometry x="159" y="315" width="174" height="30" as="geometry" />
        </mxCell>
        <mxCell id="cUVrmH6uyblH1vRHMtkd-24" value="" style="endArrow=classic;html=1;rounded=0;" edge="1" parent="1">
          <mxGeometry width="50" height="50" relative="1" as="geometry">
            <mxPoint x="159" y="428" as="sourcePoint" />
            <mxPoint x="491" y="428" as="targetPoint" />
          </mxGeometry>
        </mxCell>
        <mxCell id="cUVrmH6uyblH1vRHMtkd-25" value="POST /register" style="text;html=1;align=center;verticalAlign=middle;whiteSpace=wrap;rounded=0;" vertex="1" parent="1">
          <mxGeometry x="159" y="397" width="174" height="30" as="geometry" />
        </mxCell>
        <mxCell id="cUVrmH6uyblH1vRHMtkd-27" value="" style="endArrow=classic;html=1;rounded=0;" edge="1" parent="1">
          <mxGeometry width="50" height="50" relative="1" as="geometry">
            <mxPoint x="157" y="511" as="sourcePoint" />
            <mxPoint x="489" y="511" as="targetPoint" />
          </mxGeometry>
        </mxCell>
        <mxCell id="cUVrmH6uyblH1vRHMtkd-28" value="POST /register" style="text;html=1;align=center;verticalAlign=middle;whiteSpace=wrap;rounded=0;" vertex="1" parent="1">
          <mxGeometry x="157" y="480" width="174" height="30" as="geometry" />
        </mxCell>
        <mxCell id="cUVrmH6uyblH1vRHMtkd-30" value="&lt;b&gt;MySQL Database&lt;/b&gt;" style="shape=cylinder3;whiteSpace=wrap;html=1;boundedLbl=1;backgroundOutline=1;size=15;" vertex="1" parent="1">
          <mxGeometry x="1357" y="326" width="148" height="167" as="geometry" />
        </mxCell>
        <mxCell id="cUVrmH6uyblH1vRHMtkd-32" style="edgeStyle=orthogonalEdgeStyle;rounded=0;orthogonalLoop=1;jettySize=auto;html=1;entryX=0;entryY=0.5;entryDx=0;entryDy=0;entryPerimeter=0;exitX=1.006;exitY=0.487;exitDx=0;exitDy=0;exitPerimeter=0;" edge="1" parent="1" source="cUVrmH6uyblH1vRHMtkd-5" target="cUVrmH6uyblH1vRHMtkd-30">
          <mxGeometry relative="1" as="geometry" />
        </mxCell>
        <mxCell id="cUVrmH6uyblH1vRHMtkd-33" style="edgeStyle=orthogonalEdgeStyle;rounded=0;orthogonalLoop=1;jettySize=auto;html=1;entryX=1.003;entryY=0.548;entryDx=0;entryDy=0;entryPerimeter=0;exitX=0.009;exitY=0.608;exitDx=0;exitDy=0;exitPerimeter=0;" edge="1" parent="1" source="cUVrmH6uyblH1vRHMtkd-30" target="cUVrmH6uyblH1vRHMtkd-5">
          <mxGeometry relative="1" as="geometry">
            <mxPoint x="1103" y="423" as="sourcePoint" />
            <mxPoint x="1367" y="424" as="targetPoint" />
          </mxGeometry>
        </mxCell>
        <mxCell id="cUVrmH6uyblH1vRHMtkd-34" value="Request Sent" style="text;html=1;align=center;verticalAlign=middle;whiteSpace=wrap;rounded=0;" vertex="1" parent="1">
          <mxGeometry x="1168" y="379" width="148" height="30" as="geometry" />
        </mxCell>
        <mxCell id="cUVrmH6uyblH1vRHMtkd-35" value="Response Served" style="text;html=1;align=center;verticalAlign=middle;whiteSpace=wrap;rounded=0;" vertex="1" parent="1">
          <mxGeometry x="1212" y="441" width="60" height="30" as="geometry" />
        </mxCell>
      </root>
    </mxGraphModel>
  </diagram>
</mxfile>
